<?xml version='1.0' encoding='utf-8'?>
<svg xmlns="http://www.w3.org/2000/svg" fill="none" viewBox="0 0 200 200"> <rect width="200" height="200" fill="#fff"/> <path d="m76.701 59.169 8.162 47.532c0.08 0.466 0.4752 0.812 0.9476 0.83l37.587 1.427c0.59 0.023 1.073-0.467 1.042-1.058-0.194-3.72-0.741-16.066 0.061-24.4 0.806-8.3746 3.712-20.39 4.682-24.254 0.16-0.6353-0.322-1.2465-0.977-1.2465h-50.519c-0.62 0-1.0905 0.5583-0.9856 1.1692z" fill="#D9D9D9" stroke="#212121" stroke-width="4"/> <path d="m82.5 88c-0.7603 5.3541-0.9478 15.322-0.9893 18.5-0.0072 0.555 0.4411 1 0.996 1h41.686c0.471 0 0.875-0.322 0.963-0.785 0.702-3.721 3.307-19.711-2.156-27.215-5.677-7.7977-13.919-10.679-23-9-7.837 1.4493-16.141 7.931-17.5 17.5z" fill="#fff" stroke="#212121" stroke-width="4"/> <circle cx="103.84" cy="60.845" r="10.845" fill="#fff" stroke="#212121" stroke-width="4"/> <path d="m153.46 64.851c-0.589 4.8119-6.815 57.536 2.63 64.863 0.255 0.198 0.59 0.21 0.887 0.083l17.027-7.297s1.957-23.149 5-33c3.246-10.51 4.235-26.927 4.45-31.363 0.03-0.6067-0.49-1.0807-1.094-1.0178l-22.553 2.3494c-0.198 0.0205-0.384 0.0993-0.537 0.2264l-5.464 4.5532c-0.194 0.1619-0.315 0.3524-0.346 0.6033z" fill="#D9D9D9"/> <path d="m174 122.5s1.957-23.149 5-33c3.246-10.51 4.235-26.927 4.45-31.363 0.03-0.6067-0.49-1.0807-1.094-1.0178l-22.553 2.3494c-0.198 0.0205-0.384 0.0993-0.537 0.2264l-5.464 4.5532c-0.194 0.1619-0.315 0.3524-0.346 0.6033-0.589 4.8119-6.815 57.536 2.63 64.863 0.255 0.198 0.59 0.21 0.887 0.083l17.027-7.297zm0 0v43.5" stroke="#212121" stroke-linecap="round" stroke-width="4"/> <path d="m133 87.5c-3.147 6.55-2.968 18.446 0 24 5.767 10.792 30.971 1.378 34.166 0.132 0.218-0.085 0.389-0.235 0.495-0.443 1.385-2.706 11.015-22.354 3.339-30.689-5.999-6.5142-13.197-6.4709-22-5.5-10.352 1.1419-12.809 5.8585-16 12.5z" fill="#fff" stroke="#212121" stroke-width="4"/> <circle cx="149.84" cy="62.845" r="10.845" fill="#fff" stroke="#212121" stroke-width="4"/> <path d="m124.58 172.73c-1.464-4.982-3.318-19.551 0.62-44.597 0.06-0.382 0.337-0.703 0.709-0.811l33.825-9.812c0.76-0.22 1.463 0.486 1.236 1.244-0.837 2.787-2.572 8.545-4.474 14.745-4.188 13.657-7.39 41-7.39 41s-5.254-14.063-6.61-23.5c-0.791-5.501-0.732-12.737-0.508-18.257 0.047-1.181-1.794-1.548-2.179-0.431l-13.884 40.372c-0.263 0.765-1.117 0.823-1.345 0.047z" fill="#fff" stroke="#212121" stroke-linejoin="round" stroke-width="4"/> <path d="m132.28 146.5c-3.9-1.51-6-9.5-6-9.5s-0.563 11.824-0.501 17.5c0.054 4.897 1e-3 11 1e-3 11l6.5-19z" fill="#D9D9D9"/> <path d="m151.28 145.5c-3.9-1.51-7.281-8-7.281-8s0.037 6.421 0.5 10.5c0.722 6.355 3.5 16 3.5 16l3.281-18.5z" fill="#D9D9D9"/> <path d="m45.334 171.83c-1.254-9.558-4.1551-30.823-7.628-50.654-0.1073-0.613 0.3641-1.173 0.986-1.173h33.988c0.3928 0 0.7466 0.225 0.9017 0.586 1.2027 2.8 6.234 15.103 6.4086 25.328 0.1652 9.671-2.2522 21.594-3.6067 27.467-0.2299 0.996-1.5885 1.006-1.8548 0.018l-13.047-48.389c-0.2671-0.99-1.6744-0.984-1.9332 9e-3l-12.233 46.932c-0.278 1.066-1.8384 0.969-1.9818-0.124z" stroke="#212121" stroke-width="4"/> <path d="m38.192 62h-20.048c-0.6054 0-1.072 0.5337-0.991 1.1337l8.347 61.866 10.011 4.095c0.5354 0.219 1.1444-0.06 1.3273-0.609l11.059-33.178c0.0667-0.2001 0.0684-0.4162 0.0049-0.6174l-5.9023-18.69-2.8306-13.21c-0.0988-0.4611-0.5063-0.7905-0.9778-0.7905z" fill="#D9D9D9"/> <path d="m25.5 125-8.347-61.866c-0.081-0.6 0.3856-1.1337 0.991-1.1337h20.048c0.4715 0 0.879 0.3294 0.9778 0.7905l2.8306 13.21 5.9023 18.69c0.0635 0.2012 0.0618 0.4173-0.0049 0.6174l-11.059 33.178c-0.1829 0.549-0.7919 0.828-1.3273 0.609l-10.011-4.095zm0 0v38.5" stroke="#212121" stroke-linecap="round" stroke-width="4"/> <path d="m47.86 80.536c-1.4074 0.3655-13.085 3.5447-17.36 9.4644-5.1765 7.167-4.1869 13.822-2.5 22.5 0.99 5.093 4.6641 11.815 6.0056 14.155 0.2707 0.472 0.8715 0.627 1.3429 0.355l37.703-21.751c0.2814-0.162 0.4658-0.446 0.4872-0.77 0.1373-2.085 0.4705-10.043-2.0384-14.489-4.6241-8.1938-21.688-9.3939-23.367-9.4927-0.0964-0.0057-0.1792 4e-3 -0.2727 0.0283z" fill="#fff" stroke="#212121" stroke-width="4"/> <circle cx="47.845" cy="69.845" r="10.845" fill="#fff" stroke="#212121" stroke-width="4"/> <path d="m50.5 140.5c-3.8996-1.51-8.5-9-8.5-9l2.6454 14.5 2.3546 15.5s2.2517-12.337 3.5-15.5c1.3452-3.408 0-5.5 0-5.5z" fill="#D9D9D9"/> <path d="m33.5 97c2.8053-6.3079 7-10 7-10s-7.9287 0.6181-10.5 10c-2.0658 7.537 2 21 2 21s-1.7619-13.665 1.5-21z" fill="#D9D9D9"/> <path d="m88 193 28.191-10.261" stroke="#212121" stroke-linecap="round" stroke-width="4"/> <path d="m88 183 28.191 10.261" stroke="#212121" stroke-linecap="round" stroke-width="4"/> <path d="m97 125c0-0.552 0.4477-1 1-1h8c0.552 0 1 0.448 1 1v61c0 0.552-0.448 1-1 1h-8c-0.5523 0-1-0.448-1-1v-61z" fill="#D9D9D9"/> <path d="m101 128v55h2v-55h-2zm-3-4c-0.5523 0-1 0.448-1 1v61c0 0.552 0.4477 1 1 1h8c0.552 0 1-0.448 1-1v-61c0-0.552-0.448-1-1-1h-8z" clip-rule="evenodd" fill="#212121" fill-rule="evenodd"/> <path d="m170 115.5c0 1.273-1.08 3.058-4.519 5.09-3.304 1.953-8.22 3.782-14.469 5.344-12.467 3.117-29.796 5.066-49.012 5.066-19.216 0-36.545-1.949-49.012-5.066-6.249-1.562-11.164-3.391-14.469-5.344-3.4386-2.032-4.5186-3.817-4.5186-5.09s1.08-3.058 4.5186-5.09c3.3048-1.953 8.22-3.782 14.469-5.344 12.467-3.117 29.797-5.066 49.012-5.066 19.216 0 36.545 1.949 49.012 5.066 6.249 1.562 11.165 3.391 14.469 5.344 3.439 2.032 4.519 3.817 4.519 5.09z" fill="#35B3BB" stroke="#212121" stroke-width="4"/> <path d="m101.5 137c-26.614-0.108-48.62-1.476-66.536-12.707-0.2891-0.181-0.4637-0.5-0.4637-0.841v-5.952c13 11 40.118 12.888 67 13 27.457 0.115 48.5-3.5 68-13v5.825c0 0.408-0.254 0.778-0.633 0.93-25.605 10.287-40.17 12.855-67.367 12.745z" fill="#D9D9D9" stroke="#212121" stroke-linejoin="bevel" stroke-width="4"/> <path d="m52.986 55 3.3532-13.066s-9.08-2.3687-8.2904-13.028c0.9991-13.488 18.214-17.451 31.583-15.397 11.642 1.7889 24.975 7.2386 24.082 19.344-0.666 9.0422-5.9215 13.423-17.37 15.699-8.6444 1.7189-15.763 0.5429-19.403-0.8976-1.6301-0.6451-3.9986-2.0401-3.9986-2.0401l-4.6284 4.609-5.3272 4.7754z" fill="#35B3BB"/> <path d="m56.339 41.934 1.4529 0.3728c0.2054-0.8001-0.2749-1.6157-1.0742-1.8243l-0.3787 1.4515zm-3.3532 13.066-1.4529-0.3729c-0.1643 0.6401 0.1096 1.3122 0.6745 1.6551s1.2876 0.2758 1.7796-0.1653l-1.0012-1.1169zm5.3272-4.7754 1.0012 1.117 0.0293-0.0263 0.0279-0.0278-1.0584-1.0629zm4.6284-4.609 0.7612-1.2925c-0.5881-0.3464-1.336-0.252-1.8196 0.2296l1.0584 1.0629zm3.9986 2.0401 0.552-1.3948-0.552 1.3948zm19.403 0.8976 0.2925 1.4712-0.2925-1.4712zm17.37-15.699 1.496 0.1103-1.496-0.1103zm-24.082-19.344 0.2278-1.4826-0.2278 1.4826zm-31.583 15.397-1.4959-0.1108 1.4959 0.1108zm6.8375 12.655-3.3532 13.066 2.9058 0.7458 3.3532-13.066-2.9058-0.7457zm-0.8991 14.556 5.3272-4.7753-2.0025-2.2339-5.3272 4.7754 2.0025 2.2338zm5.3844-4.8294 4.6284-4.609-2.1168-2.1258-4.6285 4.6091 2.1169 2.1257zm3.57-5.6719c-0.7612 1.2925-0.7612 1.2925-0.7611 1.2926 1e-4 0 2e-4 1e-4 2e-4 1e-4l6e-4 3e-4c5e-4 3e-4 0.0011 7e-4 0.0018 0.0011 0.0015 9e-4 0.0035 0.0021 0.0062 0.0036 0.0052 0.0031 0.0126 0.0074 0.0222 0.0131 0.0192 0.0112 0.047 0.0274 0.0826 0.048 0.0711 0.0412 0.1735 0.1003 0.3012 0.1729 0.2549 0.1451 0.6121 0.3453 1.0221 0.5666 0.8054 0.4345 1.8694 0.9798 2.7708 1.3365l1.104-2.7895c-0.7287-0.2883-1.664-0.763-2.4504-1.1873-0.3858-0.2082-0.7227-0.397-0.9627-0.5336-0.1199-0.0683-0.2153-0.1232-0.28-0.1608-0.0324-0.0188-0.0571-0.0332-0.0734-0.0427-0.0082-0.0048-0.0142-0.0083-0.0181-0.0106-0.0019-0.0011-0.0032-0.0019-4e-3 -0.0024-4e-4 -2e-4 -7e-4 -4e-4 -8e-4 -4e-4l-1e-4 -1e-4v1e-4c1e-4 0 1e-4 0-0.7611 1.2925zm3.4466 3.4348c3.9315 1.5559 11.345 2.7442 20.247 0.9741l-0.5851-2.9424c-8.3869 1.6677-15.21 0.504-18.558-0.8212l-1.104 2.7895zm20.247 0.9741c5.826-1.1584 10.31-2.8916 13.432-5.6618 3.182-2.8238 4.787-6.5784 5.142-11.398l-2.992-0.2205c-0.311 4.2222-1.667 7.1789-4.1413 9.375-2.535 2.2498-6.4027 3.8452-12.026 4.9632l0.5851 2.9424zm18.574-17.06c0.498-6.7492-3.026-11.6-8.0076-14.902-4.9321-3.2685-11.416-5.1251-17.342-6.0356l-0.4556 2.9652c5.7166 0.8784 11.719 2.6411 16.141 5.5711 4.3716 2.8971 7.0678 6.8239 6.6728 12.18l2.992 0.2205zm-25.35-20.937c-6.8846-1.0579-14.81-0.5811-21.211 1.9582-6.4301 2.551-11.54 7.3027-12.096 14.81l2.9918 0.2216c0.443-5.9807 4.4407-9.9543 10.21-12.243 5.7987-2.3004 13.165-2.7778 19.649-1.7816l0.4556-2.9652zm-33.306 16.768c-0.4327 5.8407 1.8632 9.5402 4.35 11.744 1.2201 1.0815 2.4625 1.7847 3.3994 2.2187 0.4702 0.2178 0.8687 0.3702 1.1567 0.4701 0.1442 0.05 0.2612 0.0871 0.3463 0.1127 0.0425 0.0128 0.0771 0.0227 0.1032 0.03 0.013 0.0037 0.0239 0.0067 0.0326 9e-3 0.0044 0.0012 0.0082 0.0022 0.0114 0.0031 0.0017 4e-4 0.0032 8e-4 0.0045 0.0011 7e-4 2e-4 0.0016 5e-4 0.0019 5e-4 9e-4 3e-4 0.0017 5e-4 0.3803-1.4509 0.3787-1.4515 0.3794-1.4513 0.3801-1.4511 2e-4 1e-4 9e-4 3e-4 0.0013 4e-4 8e-4 2e-4 0.0015 3e-4 2e-3 5e-4 1e-3 3e-4 0.0016 4e-4 0.0016 4e-4 -1e-4 0-0.0022-6e-4 -0.0063-0.0017-0.0082-0.0023-0.0245-7e-3 -0.0483-0.0141-0.0476-0.0143-0.1248-0.0386-0.2274-0.0742-0.2055-0.0713-0.5102-0.1871-0.8789-0.358-0.7409-0.3432-1.7192-0.8984-2.6704-1.7415-1.8558-1.6449-3.7052-4.4594-3.3482-9.2778l-2.9918-0.2216z" fill="#212121"/> <path d="m61.423 27.607c0-0.6541 0.5302-1.1843 1.1843-1.1843h27.635c0.6541 0 1.1844 0.5302 1.1844 1.1843s-0.5303 1.1844-1.1844 1.1844h-27.635c-0.6541 0-1.1843-0.5303-1.1843-1.1844z" clip-rule="evenodd" fill="#212121" fill-rule="evenodd"/> <path d="m61.423 35.503c0-0.6541 0.5302-1.1843 1.1843-1.1843h18.16c0.6541 0 1.1844 0.5302 1.1844 1.1843s-0.5303 1.1844-1.1844 1.1844h-18.16c-0.6541 0-1.1843-0.5303-1.1843-1.1844z" clip-rule="evenodd" fill="#212121" fill-rule="evenodd"/> <path d="m153.89 38.829h-1.5c0-0.5332 0.283-1.0264 0.743-1.2953l0.757 1.2953zm0 9.171h1.5c0 0.6691-0.443 1.2574-1.086 1.4419-0.644 0.1845-1.331-0.0794-1.686-0.6468l1.272-0.7951zm-4.869-7.7892-0.869-1.2223c0.337-0.2396 0.757-0.3296 1.163-0.2487 0.405 0.0809 0.759 0.3254 0.978 0.6759l-1.272 0.7951zm-27.136-15.52-1.253-0.8236 1.253 0.8236zm27.136-11.516 0.158-1.4917-0.158 1.4917zm14.931 14.139-1.494-0.1404 1.494 0.1404zm-8.562 11.516v9.171h-3v-9.171h3zm-2.772 9.9661-4.869-7.7892 2.544-1.5902 4.869 7.7892-2.544 1.5902zm-3.597-8.5843c0.87 1.2223 0.869 1.2228 0.868 1.2233 0 1e-4 -1e-3 6e-4 -1e-3 1e-3 -1e-3 7e-4 -2e-3 0.0014-3e-3 0.0022-2e-3 0.0015-5e-3 0.0032-8e-3 0.0051-5e-3 0.0037-0.011 0.0081-0.019 0.0132-0.014 0.01-0.033 0.0226-0.055 0.0375-0.045 0.0298-0.106 0.069-0.183 0.1161-0.154 0.0943-0.373 0.2204-0.657 0.3673-0.57 0.294-1.404 0.6706-2.52 1.0421-2.232 0.7437-5.576 1.4615-10.157 1.4615v-3c4.262 0 7.285-0.6668 9.209-1.3078 0.964-0.3209 1.655-0.6365 2.092-0.8618 0.218-0.1127 0.373-0.2029 0.467-0.2601 0.046-0.0286 0.078-0.0489 0.094-0.0597 8e-3 -0.0053 0.012-0.0083 0.013-0.0088 0-2e-4 0 3e-4 -2e-3 0.0013-1e-3 6e-4 -2e-3 0.0013-3e-3 0.0022-1e-3 4e-4 -1e-3 9e-4 -2e-3 0.0014 0 3e-4 -1e-3 7e-4 -1e-3 8e-4 -1e-3 5e-4 -1e-3 9e-4 0.868 1.2232zm-12.735 4.2693c-7.567 0-12.95-2.8213-15.72-6.9593-2.772-4.1403-2.751-9.3661 0.066-13.654l2.507 1.6471c-2.178 3.3155-2.158 7.2345-0.08 10.338 2.079 3.106 6.394 5.628 13.227 5.628v3zm-15.654-20.613c5.666-8.6265 17.251-13.379 28.547-12.184l-0.316 2.9833c-10.383-1.0981-20.779 3.3207-25.724 10.848l-2.507-1.6471zm28.547-12.184c4.228 0.4471 8.45 2.0714 11.55 4.7261 3.128 2.6793 5.148 6.4547 4.716 11.045l-2.987-0.2808c0.324-3.4395-1.144-6.3128-3.681-8.4851-2.565-2.197-6.186-3.6273-9.914-4.0215l0.316-2.9833zm16.266 15.771c-0.174 1.8528-1.027 3.57-2.081 5.0473-1.061 1.4872-2.393 2.8264-3.667 3.9383-1.28 1.1162-2.535 2.0326-3.469 2.669-0.467 0.319-0.857 0.5698-1.132 0.7422-0.138 0.0863-0.248 0.1531-0.324 0.1992-0.038 0.023-0.068 0.0409-0.089 0.0534-0.011 0.0063-0.019 0.0112-0.025 0.0148-3e-3 0.0018-6e-3 0.0033-8e-3 0.0044 0 5e-4 -1e-3 1e-3 -2e-3 0.0014 0 2e-4 -1e-3 4e-4 -1e-3 5e-4 0 2e-4 0 4e-4 -0.757-1.2948-0.757-1.2953-0.757-1.2951-0.757-1.295v1e-4 -1e-4c0-2e-4 1e-3 -8e-4 3e-3 -0.0017 3e-3 -0.0018 8e-3 -0.0049 0.016-0.0093 0.014-0.0088 0.038-0.0228 0.069-0.0419 0.064-0.0381 0.159-0.0964 0.282-0.1735 0.247-0.1543 0.603-0.3837 1.035-0.6781 0.866-0.5906 2.021-1.4344 3.187-2.4513 1.17-1.0213 2.318-2.1882 3.197-3.4197 0.885-1.2412 1.43-2.4553 1.536-3.586l2.987 0.2808z" fill="#212121"/> <circle transform="matrix(-1 0 0 1 151 26)" cx="2" cy="2" r="2" fill="#212121"/> <circle transform="matrix(-1 0 0 1 144 26)" cx="2" cy="2" r="2" fill="#212121"/> <circle transform="matrix(-1 0 0 1 137 26)" cx="2" cy="2" r="2" fill="#212121"/> </svg>